<svg xmlns="http://www.w3.org/2000/svg" xmlns:xlink="http://www.w3.org/1999/xlink" width="500" zoomAndPan="magnify" viewBox="0 0 375 112.499997" height="150" preserveAspectRatio="xMidYMid meet" version="1.0"><defs><g/><clipPath id="0ebc76a83c"><path d="M 13 75 L 218 75 L 218 98 L 13 98 Z M 13 75 " clip-rule="nonzero"/></clipPath><clipPath id="40b9f1eaed"><path d="M 12.734375 70.050781 L 218.734375 75.851562 L 218.042969 100.484375 L 12.039062 94.683594 Z M 12.734375 70.050781 " clip-rule="nonzero"/></clipPath><clipPath id="0939e26ab2"><path d="M 12.734375 70.050781 L 218.734375 75.851562 L 218.042969 100.484375 L 12.039062 94.683594 Z M 12.734375 70.050781 " clip-rule="nonzero"/></clipPath></defs><g fill="#fffcf8" fill-opacity="1"><g transform="translate(12.703545, 62.228274)"><g><path d="M 0.527344 -52.617188 C 2.316406 -51.195312 2.734375 -49.40625 2.734375 -46.40625 L 2.734375 -6.207031 C 2.734375 -3.210938 2.316406 -1.421875 0.894531 0 L 15.890625 0 C 18.46875 0 19.625 -3.210938 19.625 -5.3125 C 19.625 -15.46875 5.628906 -15.574219 5.628906 -29.621094 C 5.628906 -30.621094 6.3125 -30.9375 6.789062 -30.9375 C 11.15625 -30.9375 14.734375 -21.414062 22.519531 -21.414062 C 28.992188 -21.414062 31.515625 -26.730469 31.515625 -30.253906 C 31.515625 -31.9375 31.042969 -33.253906 30.203125 -33.253906 C 29.308594 -33.253906 28.78125 -31.203125 26.359375 -31.203125 C 22.257812 -31.203125 17.625 -35.515625 12.417969 -35.515625 C 8.679688 -35.515625 7.578125 -33.570312 6.3125 -33.570312 C 5.734375 -33.570312 5.628906 -34.042969 5.628906 -34.410156 L 5.628906 -37.671875 C 5.628906 -39.671875 7.050781 -41.988281 9.574219 -41.988281 L 27.78125 -41.988281 C 33.9375 -41.988281 34.410156 -37.9375 36.09375 -37.9375 C 37.09375 -37.9375 37.304688 -38.726562 37.304688 -40.039062 L 37.304688 -52.617188 Z M 0.527344 -52.617188 "/></g></g></g><g fill="#fffcf8" fill-opacity="1"><g transform="translate(51.051449, 62.228274)"><g><path d="M 0.261719 -36.832031 C 1.683594 -35.410156 2.105469 -33.621094 2.105469 -30.621094 L 2.105469 -21.625 L 2.15625 -11.574219 C 2.15625 -6.101562 3.472656 0.789062 11.15625 0.789062 C 20.046875 0.789062 21.152344 -6.523438 23.308594 -6.523438 C 23.519531 -6.523438 23.675781 -6.523438 23.675781 -5.261719 L 23.675781 -4.367188 C 23.675781 -1.683594 24.308594 0 26.570312 0 L 39.460938 0 C 38.042969 -1.421875 37.621094 -3.210938 37.621094 -6.207031 L 37.621094 -30.621094 C 37.621094 -33.621094 38.042969 -35.410156 39.460938 -36.832031 L 21.835938 -36.832031 C 23.257812 -35.410156 23.675781 -33.621094 23.675781 -30.621094 L 23.675781 -16.3125 C 23.675781 -10.46875 21.46875 -8.839844 19.046875 -8.839844 C 16.730469 -8.839844 16.046875 -11.101562 16.046875 -13.523438 L 16.046875 -30.621094 C 16.046875 -33.621094 16.46875 -35.410156 17.890625 -36.832031 Z M 0.261719 -36.832031 "/></g></g></g><g fill="#fffcf8" fill-opacity="1"><g transform="translate(91.030072, 62.228274)"><g><path d="M 0.261719 -46.25 C 2.789062 -45.566406 2.527344 -42.828125 2.527344 -42.199219 L 2.527344 -4.316406 C 2.527344 -1.632812 3.15625 0 5.417969 0 L 18.308594 0 C 16.890625 -1.421875 16.46875 -3.210938 16.46875 -6.207031 L 16.46875 -51.351562 C 16.46875 -52.40625 16.417969 -53.40625 14.890625 -53.40625 C 11.785156 -53.40625 2.105469 -48.667969 0.0507812 -47.671875 C -0.0507812 -47.617188 -0.527344 -47.511719 -0.527344 -46.984375 C -0.527344 -46.355469 0.105469 -46.300781 0.261719 -46.25 Z M 0.261719 -46.25 "/></g></g></g><g fill="#fffcf8" fill-opacity="1"><g transform="translate(109.86211, 62.228274)"><g><path d="M 0.261719 -46.25 C 2.789062 -45.566406 2.527344 -42.828125 2.527344 -42.199219 L 2.527344 -4.316406 C 2.527344 -1.632812 3.15625 0 5.417969 0 L 18.308594 0 C 16.890625 -1.421875 16.46875 -3.210938 16.46875 -6.207031 L 16.46875 -51.351562 C 16.46875 -52.40625 16.417969 -53.40625 14.890625 -53.40625 C 11.785156 -53.40625 2.105469 -48.667969 0.0507812 -47.671875 C -0.0507812 -47.617188 -0.527344 -47.511719 -0.527344 -46.984375 C -0.527344 -46.355469 0.105469 -46.300781 0.261719 -46.25 Z M 0.261719 -46.25 "/></g></g></g><g fill="#fffcf8" fill-opacity="1"><g transform="translate(128.694148, 62.228274)"><g><path d="M 16.785156 0.789062 C 31.464844 0.789062 37.621094 -9.839844 37.621094 -19.203125 C 37.621094 -27.308594 31.621094 -33.148438 22.78125 -33.988281 C 14.835938 -34.726562 4.894531 -35.777344 4.894531 -41.460938 C 4.894531 -43.460938 6.472656 -45.144531 8.417969 -45.144531 C 15.46875 -45.144531 20.308594 -38.832031 28.042969 -38.832031 C 34.464844 -38.832031 39.25 -53.40625 35.566406 -53.40625 C 33.9375 -53.40625 32.886719 -51.300781 29.253906 -51.300781 C 24.464844 -51.300781 21.257812 -53.40625 17.152344 -53.40625 C 8.3125 -53.40625 0.894531 -46.25 0.894531 -37.410156 C 0.894531 -26.308594 9.839844 -23.152344 20.257812 -19.941406 C 25.464844 -18.308594 30.148438 -15.785156 30.148438 -10.417969 C 30.148438 -6.367188 26.519531 -3.316406 22.46875 -3.316406 C 14.257812 -3.316406 15.207031 -10.945312 15.941406 -16.46875 C 16.207031 -18.46875 14.835938 -19.519531 13.257812 -19.574219 C 10.523438 -19.679688 0.527344 -14.46875 0.527344 -11.3125 C 0.527344 -5 7.996094 0.789062 16.785156 0.789062 Z M 16.785156 0.789062 "/></g></g></g><g fill="#fffcf8" fill-opacity="1"><g transform="translate(167.620699, 62.228274)"><g><path d="M 0 -36.832031 L 0 -34.199219 L 1.632812 -34.199219 C 4.105469 -34.199219 4.050781 -32.410156 4.050781 -30.832031 L 4.050781 -13.941406 C 4.050781 -6.734375 5.472656 0.789062 15.574219 0.789062 C 18.101562 0.789062 21.046875 -0.421875 21.308594 -2.316406 C 20.785156 -2.421875 20.363281 -2.367188 19.941406 -2.628906 C 17.152344 -4.367188 17.414062 -8.839844 17.414062 -12.945312 L 17.414062 -34.199219 L 21.941406 -34.199219 L 21.941406 -36.832031 L 17.414062 -36.832031 L 17.414062 -46.566406 C 17.414062 -47.300781 17.046875 -47.828125 16.417969 -47.828125 C 14.3125 -47.828125 5.3125 -36.832031 0 -36.832031 Z M 0 -36.832031 "/></g></g></g><g fill="#fffcf8" fill-opacity="1"><g transform="translate(190.082365, 62.228274)"><g><path d="M 6.683594 -4.628906 C 10.261719 -1 14.941406 0.789062 19.730469 0.789062 C 24.625 0.789062 29.621094 -1.15625 33.464844 -5.050781 C 40.988281 -12.679688 41.199219 -24.78125 33.882812 -32.148438 C 30.308594 -35.777344 25.625 -37.566406 20.835938 -37.566406 C 15.941406 -37.566406 10.945312 -35.621094 7.101562 -31.78125 C -0.472656 -24.152344 -0.632812 -12.050781 6.683594 -4.628906 Z M 17.730469 -34.777344 C 21.152344 -35.304688 25.046875 -28.359375 26.414062 -19.257812 C 27.78125 -9.996094 26.148438 -2.261719 22.78125 -1.734375 C 19.363281 -1.210938 15.46875 -8.101562 14.046875 -17.257812 C 12.628906 -26.464844 14.257812 -34.253906 17.730469 -34.777344 Z M 17.730469 -34.777344 "/></g></g></g><g fill="#fffcf8" fill-opacity="1"><g transform="translate(230.639622, 62.228274)"><g><path d="M 0.527344 0 L 18.152344 0 C 16.730469 -1.421875 16.3125 -3.210938 16.3125 -6.207031 L 16.3125 -20.519531 C 16.3125 -23.414062 16.941406 -27.414062 21.363281 -27.414062 C 26.464844 -27.414062 25.886719 -22.78125 28.148438 -22.78125 C 29.097656 -22.78125 30.308594 -25.570312 31.78125 -28.464844 C 33.09375 -31.097656 34.621094 -33.832031 34.621094 -34.464844 C 34.621094 -36.515625 30.832031 -37.621094 28.042969 -37.621094 C 19.785156 -37.621094 18.519531 -30.308594 16.679688 -30.308594 C 16.46875 -30.308594 16.3125 -30.308594 16.3125 -31.570312 L 16.3125 -32.464844 C 16.3125 -35.148438 15.679688 -36.832031 13.417969 -36.832031 L 0.527344 -36.832031 C 1.945312 -35.410156 2.367188 -33.621094 2.367188 -30.621094 L 2.367188 -6.207031 C 2.367188 -3.210938 1.945312 -1.421875 0.527344 0 Z M 0.527344 0 "/></g></g></g><g fill="#fffcf8" fill-opacity="1"><g transform="translate(265.778718, 62.228274)"><g><path d="M 1.316406 -17.414062 C 1.316406 -7.050781 10.46875 0.789062 20.574219 0.789062 C 30.675781 0.789062 35.148438 -6.367188 35.148438 -10.367188 C 35.148438 -11.261719 34.675781 -11.46875 34.304688 -11.46875 C 33.253906 -11.46875 32.464844 -8.734375 27.464844 -8.734375 C 21.414062 -8.734375 12.945312 -14.152344 12.945312 -16.046875 C 12.945312 -16.941406 13.628906 -16.890625 14.152344 -16.890625 C 23.414062 -16.890625 34.882812 -14.835938 34.882812 -23.570312 C 34.882812 -30.832031 29.570312 -37.621094 20.203125 -37.621094 C 7.890625 -37.621094 1.316406 -28.9375 1.316406 -17.414062 Z M 7.207031 -27.042969 C 7.207031 -30.042969 10.3125 -31.886719 13.257812 -31.886719 C 17.679688 -31.886719 23.992188 -28.832031 23.992188 -23.363281 C 23.992188 -19.835938 18.152344 -19.414062 13.207031 -19.414062 C 8.945312 -19.414062 7.207031 -23.308594 7.207031 -27.042969 Z M 7.207031 -27.042969 "/></g></g></g><g fill="#fffcf8" fill-opacity="1"><g transform="translate(222.535725, 92.955366)"><g><path d="M 2.34375 0 L 0.5 0 L 5.796875 -14.421875 L 7.609375 -14.421875 L 12.90625 0 L 11.0625 0 L 9.625 -4.078125 L 3.78125 -4.078125 Z M 4.34375 -5.640625 L 9.0625 -5.640625 L 6.765625 -12.140625 L 6.640625 -12.140625 Z M 4.34375 -5.640625 "/></g></g></g><g fill="#fffcf8" fill-opacity="1"><g transform="translate(235.942562, 92.955366)"><g><path d="M 5.609375 0.21875 C 4.703125 0.21875 3.90625 -0.00390625 3.21875 -0.453125 C 2.53125 -0.910156 1.988281 -1.554688 1.59375 -2.390625 C 1.207031 -3.234375 1.015625 -4.226562 1.015625 -5.375 C 1.015625 -6.507812 1.207031 -7.492188 1.59375 -8.328125 C 1.988281 -9.171875 2.53125 -9.816406 3.21875 -10.265625 C 3.914062 -10.722656 4.722656 -10.953125 5.640625 -10.953125 C 6.335938 -10.953125 6.890625 -10.835938 7.296875 -10.609375 C 7.710938 -10.378906 8.03125 -10.113281 8.25 -9.8125 C 8.46875 -9.519531 8.640625 -9.28125 8.765625 -9.09375 L 8.90625 -9.09375 L 8.90625 -14.421875 L 10.5625 -14.421875 L 10.5625 0 L 8.953125 0 L 8.953125 -1.65625 L 8.765625 -1.65625 C 8.640625 -1.457031 8.460938 -1.207031 8.234375 -0.90625 C 8.015625 -0.613281 7.691406 -0.351562 7.265625 -0.125 C 6.847656 0.101562 6.296875 0.21875 5.609375 0.21875 Z M 5.828125 -1.265625 C 6.828125 -1.265625 7.59375 -1.644531 8.125 -2.40625 C 8.65625 -3.175781 8.921875 -4.175781 8.921875 -5.40625 C 8.921875 -6.613281 8.65625 -7.59375 8.125 -8.34375 C 7.601562 -9.09375 6.835938 -9.46875 5.828125 -9.46875 C 5.128906 -9.46875 4.546875 -9.285156 4.078125 -8.921875 C 3.609375 -8.566406 3.253906 -8.082031 3.015625 -7.46875 C 2.785156 -6.851562 2.671875 -6.164062 2.671875 -5.40625 C 2.671875 -4.632812 2.789062 -3.9375 3.03125 -3.3125 C 3.269531 -2.6875 3.617188 -2.1875 4.078125 -1.8125 C 4.546875 -1.445312 5.128906 -1.265625 5.828125 -1.265625 Z M 5.828125 -1.265625 "/></g></g></g><g fill="#fffcf8" fill-opacity="1"><g transform="translate(248.250935, 92.955366)"><g><path d="M 1.515625 0 L 1.515625 -10.8125 L 3.125 -10.8125 L 3.125 -9.125 L 3.265625 -9.125 C 3.492188 -9.695312 3.859375 -10.144531 4.359375 -10.46875 C 4.859375 -10.789062 5.460938 -10.953125 6.171875 -10.953125 C 6.878906 -10.953125 7.472656 -10.789062 7.953125 -10.46875 C 8.429688 -10.144531 8.800781 -9.695312 9.0625 -9.125 L 9.1875 -9.125 C 9.457031 -9.6875 9.867188 -10.128906 10.421875 -10.453125 C 10.984375 -10.785156 11.648438 -10.953125 12.421875 -10.953125 C 13.390625 -10.953125 14.179688 -10.648438 14.796875 -10.046875 C 15.410156 -9.441406 15.71875 -8.503906 15.71875 -7.234375 L 15.71875 0 L 14.046875 0 L 14.046875 -7.234375 C 14.046875 -8.035156 13.828125 -8.609375 13.390625 -8.953125 C 12.960938 -9.296875 12.453125 -9.46875 11.859375 -9.46875 C 11.097656 -9.46875 10.507812 -9.238281 10.09375 -8.78125 C 9.675781 -8.320312 9.46875 -7.742188 9.46875 -7.046875 L 9.46875 0 L 7.78125 0 L 7.78125 -7.40625 C 7.78125 -8.019531 7.578125 -8.515625 7.171875 -8.890625 C 6.773438 -9.273438 6.265625 -9.46875 5.640625 -9.46875 C 5.203125 -9.46875 4.796875 -9.347656 4.421875 -9.109375 C 4.046875 -8.878906 3.742188 -8.5625 3.515625 -8.15625 C 3.296875 -7.757812 3.1875 -7.296875 3.1875 -6.765625 L 3.1875 0 Z M 1.515625 0 "/></g></g></g><g fill="#fffcf8" fill-opacity="1"><g transform="translate(265.488295, 92.955366)"><g><path d="M 1.515625 0 L 1.515625 -10.8125 L 3.1875 -10.8125 L 3.1875 0 Z M 2.359375 -12.625 C 2.035156 -12.625 1.757812 -12.734375 1.53125 -12.953125 C 1.300781 -13.171875 1.1875 -13.4375 1.1875 -13.75 C 1.1875 -14.050781 1.300781 -14.3125 1.53125 -14.53125 C 1.757812 -14.757812 2.035156 -14.875 2.359375 -14.875 C 2.691406 -14.875 2.972656 -14.757812 3.203125 -14.53125 C 3.429688 -14.3125 3.546875 -14.050781 3.546875 -13.75 C 3.546875 -13.4375 3.429688 -13.171875 3.203125 -12.953125 C 2.972656 -12.734375 2.691406 -12.625 2.359375 -12.625 Z M 2.359375 -12.625 "/></g></g></g><g fill="#fffcf8" fill-opacity="1"><g transform="translate(270.191957, 92.955366)"><g><path d="M 3.1875 -6.5 L 3.1875 0 L 1.515625 0 L 1.515625 -10.8125 L 3.125 -10.8125 L 3.125 -9.125 L 3.265625 -9.125 C 3.515625 -9.675781 3.898438 -10.117188 4.421875 -10.453125 C 4.941406 -10.785156 5.609375 -10.953125 6.421875 -10.953125 C 7.515625 -10.953125 8.394531 -10.613281 9.0625 -9.9375 C 9.738281 -9.269531 10.078125 -8.25 10.078125 -6.875 L 10.078125 0 L 8.421875 0 L 8.421875 -6.765625 C 8.421875 -7.609375 8.195312 -8.269531 7.75 -8.75 C 7.3125 -9.226562 6.707031 -9.46875 5.9375 -9.46875 C 5.144531 -9.46875 4.488281 -9.207031 3.96875 -8.6875 C 3.445312 -8.175781 3.1875 -7.445312 3.1875 -6.5 Z M 3.1875 -6.5 "/></g></g></g><g fill="#fffcf8" fill-opacity="1"><g transform="translate(281.796195, 92.955366)"><g><path d="M 1.515625 0 L 1.515625 -10.8125 L 3.1875 -10.8125 L 3.1875 0 Z M 2.359375 -12.625 C 2.035156 -12.625 1.757812 -12.734375 1.53125 -12.953125 C 1.300781 -13.171875 1.1875 -13.4375 1.1875 -13.75 C 1.1875 -14.050781 1.300781 -14.3125 1.53125 -14.53125 C 1.757812 -14.757812 2.035156 -14.875 2.359375 -14.875 C 2.691406 -14.875 2.972656 -14.757812 3.203125 -14.53125 C 3.429688 -14.3125 3.546875 -14.050781 3.546875 -13.75 C 3.546875 -13.4375 3.429688 -13.171875 3.203125 -12.953125 C 2.972656 -12.734375 2.691406 -12.625 2.359375 -12.625 Z M 2.359375 -12.625 "/></g></g></g><g fill="#fffcf8" fill-opacity="1"><g transform="translate(286.499857, 92.955366)"><g><path d="M 9.1875 -8.390625 L 7.6875 -7.96875 C 7.539062 -8.34375 7.296875 -8.691406 6.953125 -9.015625 C 6.609375 -9.347656 6.070312 -9.515625 5.34375 -9.515625 C 4.6875 -9.515625 4.140625 -9.363281 3.703125 -9.0625 C 3.265625 -8.757812 3.046875 -8.378906 3.046875 -7.921875 C 3.046875 -7.503906 3.191406 -7.175781 3.484375 -6.9375 C 3.785156 -6.695312 4.257812 -6.5 4.90625 -6.34375 L 6.5 -5.9375 C 8.414062 -5.46875 9.375 -4.492188 9.375 -3.015625 C 9.375 -2.390625 9.195312 -1.832031 8.84375 -1.34375 C 8.488281 -0.863281 7.992188 -0.484375 7.359375 -0.203125 C 6.734375 0.078125 6 0.21875 5.15625 0.21875 C 4.050781 0.21875 3.132812 -0.0195312 2.40625 -0.5 C 1.6875 -0.976562 1.234375 -1.675781 1.046875 -2.59375 L 2.625 -2.984375 C 2.914062 -1.816406 3.75 -1.234375 5.125 -1.234375 C 5.894531 -1.234375 6.507812 -1.398438 6.96875 -1.734375 C 7.425781 -2.066406 7.65625 -2.460938 7.65625 -2.921875 C 7.65625 -3.691406 7.125 -4.203125 6.0625 -4.453125 L 4.25 -4.875 C 3.257812 -5.101562 2.53125 -5.460938 2.0625 -5.953125 C 1.601562 -6.453125 1.375 -7.078125 1.375 -7.828125 C 1.375 -8.441406 1.546875 -8.984375 1.890625 -9.453125 C 2.242188 -9.921875 2.71875 -10.285156 3.3125 -10.546875 C 3.90625 -10.816406 4.582031 -10.953125 5.34375 -10.953125 C 6.414062 -10.953125 7.257812 -10.71875 7.875 -10.25 C 8.488281 -9.78125 8.925781 -9.160156 9.1875 -8.390625 Z M 9.1875 -8.390625 "/></g></g></g><g fill="#fffcf8" fill-opacity="1"><g transform="translate(296.864801, 92.955366)"><g><path d="M 6.21875 -10.8125 L 6.21875 -9.40625 L 3.921875 -9.40625 L 3.921875 -3.09375 C 3.921875 -2.625 3.988281 -2.273438 4.125 -2.046875 C 4.257812 -1.816406 4.4375 -1.660156 4.65625 -1.578125 C 4.875 -1.503906 5.101562 -1.46875 5.34375 -1.46875 C 5.53125 -1.46875 5.679688 -1.476562 5.796875 -1.5 C 5.921875 -1.519531 6.015625 -1.535156 6.078125 -1.546875 L 6.421875 -0.0625 C 6.304688 -0.0195312 6.144531 0.0195312 5.9375 0.0625 C 5.738281 0.113281 5.488281 0.140625 5.1875 0.140625 C 4.71875 0.140625 4.257812 0.0390625 3.8125 -0.15625 C 3.363281 -0.363281 2.988281 -0.671875 2.6875 -1.078125 C 2.394531 -1.492188 2.25 -2.015625 2.25 -2.640625 L 2.25 -9.40625 L 0.625 -9.40625 L 0.625 -10.8125 L 2.25 -10.8125 L 2.25 -13.40625 L 3.921875 -13.40625 L 3.921875 -10.8125 Z M 6.21875 -10.8125 "/></g></g></g><g fill="#fffcf8" fill-opacity="1"><g transform="translate(304.075197, 92.955366)"><g><path d="M 1.515625 0 L 1.515625 -10.8125 L 3.125 -10.8125 L 3.125 -9.1875 L 3.234375 -9.1875 C 3.429688 -9.71875 3.785156 -10.148438 4.296875 -10.484375 C 4.816406 -10.816406 5.40625 -10.984375 6.0625 -10.984375 C 6.351562 -10.984375 6.613281 -10.945312 6.84375 -10.875 C 7.070312 -10.800781 7.269531 -10.707031 7.4375 -10.59375 L 6.875 -9.1875 C 6.757812 -9.238281 6.617188 -9.28125 6.453125 -9.3125 C 6.296875 -9.351562 6.117188 -9.375 5.921875 -9.375 C 5.128906 -9.375 4.472656 -9.132812 3.953125 -8.65625 C 3.441406 -8.175781 3.1875 -7.570312 3.1875 -6.84375 L 3.1875 0 Z M 1.515625 0 "/></g></g></g><g fill="#fffcf8" fill-opacity="1"><g transform="translate(311.679907, 92.955366)"><g><path d="M 4.703125 0.25 C 4.015625 0.25 3.390625 0.117188 2.828125 -0.140625 C 2.273438 -0.398438 1.832031 -0.773438 1.5 -1.265625 C 1.175781 -1.765625 1.015625 -2.363281 1.015625 -3.0625 C 1.015625 -3.6875 1.132812 -4.191406 1.375 -4.578125 C 1.625 -4.960938 1.953125 -5.265625 2.359375 -5.484375 C 2.765625 -5.710938 3.210938 -5.878906 3.703125 -5.984375 C 4.203125 -6.097656 4.703125 -6.1875 5.203125 -6.25 C 5.867188 -6.332031 6.40625 -6.394531 6.8125 -6.4375 C 7.21875 -6.488281 7.515625 -6.566406 7.703125 -6.671875 C 7.898438 -6.785156 8 -6.972656 8 -7.234375 L 8 -7.296875 C 8 -7.992188 7.804688 -8.53125 7.421875 -8.90625 C 7.046875 -9.289062 6.476562 -9.484375 5.71875 -9.484375 C 4.925781 -9.484375 4.300781 -9.3125 3.84375 -8.96875 C 3.394531 -8.625 3.082031 -8.253906 2.90625 -7.859375 L 1.328125 -8.421875 C 1.609375 -9.078125 1.984375 -9.585938 2.453125 -9.953125 C 2.921875 -10.328125 3.4375 -10.585938 4 -10.734375 C 4.5625 -10.878906 5.113281 -10.953125 5.65625 -10.953125 C 6.007812 -10.953125 6.410156 -10.910156 6.859375 -10.828125 C 7.316406 -10.742188 7.753906 -10.578125 8.171875 -10.328125 C 8.597656 -10.078125 8.953125 -9.695312 9.234375 -9.1875 C 9.515625 -8.675781 9.65625 -7.988281 9.65625 -7.125 L 9.65625 0 L 8 0 L 8 -1.46875 L 7.921875 -1.46875 C 7.804688 -1.226562 7.613281 -0.972656 7.34375 -0.703125 C 7.082031 -0.441406 6.734375 -0.21875 6.296875 -0.03125 C 5.859375 0.15625 5.328125 0.25 4.703125 0.25 Z M 4.953125 -1.234375 C 5.609375 -1.234375 6.160156 -1.363281 6.609375 -1.625 C 7.066406 -1.882812 7.410156 -2.21875 7.640625 -2.625 C 7.878906 -3.03125 8 -3.460938 8 -3.921875 L 8 -5.4375 C 7.925781 -5.351562 7.769531 -5.273438 7.53125 -5.203125 C 7.300781 -5.140625 7.03125 -5.082031 6.71875 -5.03125 C 6.414062 -4.976562 6.117188 -4.929688 5.828125 -4.890625 C 5.535156 -4.859375 5.300781 -4.832031 5.125 -4.8125 C 4.695312 -4.757812 4.296875 -4.671875 3.921875 -4.546875 C 3.546875 -4.421875 3.242188 -4.234375 3.015625 -3.984375 C 2.785156 -3.742188 2.671875 -3.410156 2.671875 -2.984375 C 2.671875 -2.410156 2.882812 -1.972656 3.3125 -1.671875 C 3.75 -1.378906 4.296875 -1.234375 4.953125 -1.234375 Z M 4.953125 -1.234375 "/></g></g></g><g fill="#fffcf8" fill-opacity="1"><g transform="translate(322.861656, 92.955366)"><g><path d="M 6.21875 -10.8125 L 6.21875 -9.40625 L 3.921875 -9.40625 L 3.921875 -3.09375 C 3.921875 -2.625 3.988281 -2.273438 4.125 -2.046875 C 4.257812 -1.816406 4.4375 -1.660156 4.65625 -1.578125 C 4.875 -1.503906 5.101562 -1.46875 5.34375 -1.46875 C 5.53125 -1.46875 5.679688 -1.476562 5.796875 -1.5 C 5.921875 -1.519531 6.015625 -1.535156 6.078125 -1.546875 L 6.421875 -0.0625 C 6.304688 -0.0195312 6.144531 0.0195312 5.9375 0.0625 C 5.738281 0.113281 5.488281 0.140625 5.1875 0.140625 C 4.71875 0.140625 4.257812 0.0390625 3.8125 -0.15625 C 3.363281 -0.363281 2.988281 -0.671875 2.6875 -1.078125 C 2.394531 -1.492188 2.25 -2.015625 2.25 -2.640625 L 2.25 -9.40625 L 0.625 -9.40625 L 0.625 -10.8125 L 2.25 -10.8125 L 2.25 -13.40625 L 3.921875 -13.40625 L 3.921875 -10.8125 Z M 6.21875 -10.8125 "/></g></g></g><g fill="#fffcf8" fill-opacity="1"><g transform="translate(330.072052, 92.955366)"><g><path d="M 1.515625 0 L 1.515625 -10.8125 L 3.1875 -10.8125 L 3.1875 0 Z M 2.359375 -12.625 C 2.035156 -12.625 1.757812 -12.734375 1.53125 -12.953125 C 1.300781 -13.171875 1.1875 -13.4375 1.1875 -13.75 C 1.1875 -14.050781 1.300781 -14.3125 1.53125 -14.53125 C 1.757812 -14.757812 2.035156 -14.875 2.359375 -14.875 C 2.691406 -14.875 2.972656 -14.757812 3.203125 -14.53125 C 3.429688 -14.3125 3.546875 -14.050781 3.546875 -13.75 C 3.546875 -13.4375 3.429688 -13.171875 3.203125 -12.953125 C 2.972656 -12.734375 2.691406 -12.625 2.359375 -12.625 Z M 2.359375 -12.625 "/></g></g></g><g fill="#fffcf8" fill-opacity="1"><g transform="translate(334.775714, 92.955366)"><g><path d="M 10.359375 -10.8125 L 6.359375 0 L 4.671875 0 L 0.671875 -10.8125 L 2.484375 -10.8125 L 5.46875 -2.203125 L 5.578125 -2.203125 L 8.5625 -10.8125 Z M 10.359375 -10.8125 "/></g></g></g><g fill="#fffcf8" fill-opacity="1"><g transform="translate(345.816632, 92.955366)"><g><path d="M 6.0625 0.21875 C 5.019531 0.21875 4.117188 -0.0078125 3.359375 -0.46875 C 2.609375 -0.925781 2.03125 -1.570312 1.625 -2.40625 C 1.21875 -3.238281 1.015625 -4.210938 1.015625 -5.328125 C 1.015625 -6.429688 1.21875 -7.40625 1.625 -8.25 C 2.03125 -9.101562 2.597656 -9.765625 3.328125 -10.234375 C 4.054688 -10.710938 4.910156 -10.953125 5.890625 -10.953125 C 6.453125 -10.953125 7.003906 -10.859375 7.546875 -10.671875 C 8.097656 -10.484375 8.597656 -10.175781 9.046875 -9.75 C 9.503906 -9.332031 9.863281 -8.78125 10.125 -8.09375 C 10.394531 -7.40625 10.53125 -6.554688 10.53125 -5.546875 L 10.53125 -4.84375 L 2.6875 -4.84375 C 2.71875 -3.6875 3.039062 -2.800781 3.65625 -2.1875 C 4.28125 -1.570312 5.082031 -1.265625 6.0625 -1.265625 C 6.707031 -1.265625 7.265625 -1.40625 7.734375 -1.6875 C 8.203125 -1.96875 8.546875 -2.390625 8.765625 -2.953125 L 10.359375 -2.5 C 10.109375 -1.6875 9.601562 -1.03125 8.84375 -0.53125 C 8.082031 -0.03125 7.15625 0.21875 6.0625 0.21875 Z M 2.6875 -6.28125 L 8.84375 -6.28125 C 8.84375 -7.195312 8.570312 -7.957031 8.03125 -8.5625 C 7.5 -9.164062 6.785156 -9.46875 5.890625 -9.46875 C 5.253906 -9.46875 4.703125 -9.316406 4.234375 -9.015625 C 3.773438 -8.722656 3.410156 -8.332031 3.140625 -7.84375 C 2.867188 -7.363281 2.71875 -6.84375 2.6875 -6.28125 Z M 2.6875 -6.28125 "/></g></g></g><g clip-path="url(#0ebc76a83c)"><g clip-path="url(#40b9f1eaed)"><g clip-path="url(#0939e26ab2)"><path fill="#fffcf8" d="M 19.988281 89.574219 C 23.050781 87.285156 26.222656 85.152344 29.507812 83.183594 C 29.746094 83.054688 30.792969 82.488281 29.988281 82.910156 C 30.414062 82.683594 30.855469 82.496094 31.296875 82.3125 C 31.734375 82.125 32.109375 81.984375 32.484375 81.835938 L 33.085938 81.621094 C 33.601562 81.4375 32.277344 81.855469 33.085938 81.621094 C 33.5 81.515625 33.898438 81.40625 34.335938 81.324219 C 34.394531 81.324219 35.4375 81.15625 34.726562 81.238281 C 34.015625 81.324219 34.824219 81.242188 34.976562 81.246094 C 35.421875 81.195312 35.863281 81.167969 36.316406 81.148438 C 36.4375 81.152344 37.171875 81.125 36.644531 81.160156 C 36.121094 81.191406 37.039062 81.171875 37.144531 81.171875 C 37.660156 81.1875 38.171875 81.273438 38.6875 81.320312 C 39.203125 81.367188 38.207031 81.179688 38.75 81.320312 L 39.414062 81.484375 C 39.632812 81.546875 39.855469 81.605469 40.0625 81.683594 C 40.121094 81.6875 40.765625 81.949219 40.46875 81.824219 C 40.175781 81.695312 40.804688 81.992188 40.859375 82.023438 C 41.105469 82.152344 41.34375 82.292969 41.582031 82.433594 C 43.023438 83.464844 44.332031 84.640625 45.507812 85.960938 C 48.105469 88.640625 51.105469 90.765625 54.507812 92.335938 C 56.3125 93.148438 58.179688 93.800781 60.101562 94.289062 C 62.027344 94.777344 63.980469 95.097656 65.960938 95.242188 C 67.941406 95.390625 69.921875 95.367188 71.894531 95.167969 C 73.871094 94.96875 75.816406 94.601562 77.726562 94.0625 C 84.839844 91.964844 90.957031 87.910156 97.464844 84.515625 C 97.589844 84.457031 98.707031 83.898438 98.175781 84.15625 L 98.496094 84.003906 L 99.019531 83.757812 C 99.761719 83.414062 100.511719 83.085938 101.269531 82.789062 C 101.667969 82.625 102.082031 82.476562 102.472656 82.335938 L 103.003906 82.152344 C 103.589844 81.957031 102.925781 82.332031 102.710938 82.25 C 102.878906 82.316406 103.585938 81.996094 103.789062 81.945312 C 104.195312 81.84375 104.601562 81.753906 105.007812 81.675781 C 105.238281 81.65625 105.464844 81.617188 105.6875 81.554688 C 105.605469 81.589844 104.628906 81.683594 105.371094 81.617188 C 105.742188 81.578125 106.105469 81.535156 106.476562 81.511719 C 106.65625 81.515625 106.839844 81.523438 107.027344 81.480469 C 107.347656 81.488281 107.546875 81.304688 106.800781 81.472656 C 107.222656 81.429688 107.644531 81.441406 108.066406 81.507812 C 108.492188 81.519531 108.914062 81.613281 109.332031 81.664062 C 108.53125 81.5625 109.566406 81.71875 109.820312 81.78125 C 110.664062 81.988281 111.488281 82.25 112.296875 82.566406 C 111.683594 82.335938 112.710938 82.761719 112.84375 82.820312 L 113.878906 83.332031 C 114.671875 83.746094 115.402344 84.171875 116.144531 84.644531 C 117.5625 85.527344 118.929688 86.496094 120.289062 87.457031 C 122.933594 89.460938 125.765625 91.164062 128.78125 92.566406 C 130.726562 93.410156 132.753906 93.972656 134.859375 94.261719 C 136.960938 94.550781 139.066406 94.554688 141.171875 94.265625 C 145.839844 93.515625 150.242188 92.011719 154.382812 89.757812 C 157.929688 87.945312 161.238281 85.730469 164.742188 83.835938 L 165.992188 83.171875 C 166.695312 82.808594 166.148438 83.097656 165.992188 83.171875 L 166.636719 82.863281 C 167.601562 82.40625 168.578125 81.980469 169.574219 81.605469 C 170.011719 81.433594 170.453125 81.277344 170.890625 81.125 C 171.707031 80.835938 170.890625 81.125 170.796875 81.121094 C 171.007812 81.03125 171.230469 80.964844 171.460938 80.925781 C 171.90625 80.804688 172.355469 80.6875 172.800781 80.589844 L 173.472656 80.457031 C 174.582031 80.210938 172.550781 80.542969 173.675781 80.414062 C 174.121094 80.363281 174.5625 80.3125 175.007812 80.285156 C 175.28125 80.292969 176.503906 80.328125 175.621094 80.25 C 176.0625 80.261719 176.5 80.273438 176.941406 80.339844 L 177.597656 80.421875 C 176.859375 80.339844 177.886719 80.488281 177.976562 80.511719 C 178.414062 80.613281 178.84375 80.738281 179.269531 80.882812 C 179.484375 80.953125 179.699219 81.03125 179.90625 81.117188 C 179.359375 80.902344 179.714844 81.03125 179.835938 81.113281 C 180.414062 81.441406 180.96875 81.800781 181.503906 82.195312 C 181.921875 82.507812 181.582031 82.261719 181.503906 82.195312 L 181.875 82.523438 C 182.125 82.753906 182.375 82.988281 182.609375 83.234375 C 183.191406 83.808594 183.738281 84.410156 184.277344 85.015625 C 185.339844 86.226562 186.351562 87.457031 187.394531 88.726562 C 189.351562 91.085938 191.402344 93.472656 194.140625 94.980469 C 196.128906 96.132812 198.253906 96.945312 200.511719 97.417969 C 202.769531 97.886719 205.046875 97.996094 207.339844 97.734375 C 209.933594 97.40625 212.410156 96.679688 214.765625 95.558594 C 215.957031 94.980469 218.246094 93.558594 217 91.984375 C 215.871094 90.550781 212.859375 90.863281 211.4375 91.554688 C 210.980469 91.78125 210.515625 92 210.03125 92.191406 L 209.332031 92.457031 C 208.257812 92.882812 209.898438 92.355469 209.21875 92.457031 C 208.992188 92.503906 208.765625 92.578125 208.53125 92.625 C 208.296875 92.675781 207.65625 92.832031 208.246094 92.707031 C 208.835938 92.578125 208.117188 92.703125 207.964844 92.738281 L 207.15625 92.800781 C 206.398438 92.859375 207.042969 92.800781 207.203125 92.804688 C 206.925781 92.796875 206.65625 92.789062 206.398438 92.78125 C 206.171875 92.773438 205.957031 92.769531 205.730469 92.714844 C 205.636719 92.710938 204.929688 92.574219 205.363281 92.65625 C 205.796875 92.742188 205.082031 92.585938 204.996094 92.566406 L 204.324219 92.390625 C 203.8125 92.238281 203.308594 92.074219 202.816406 91.878906 C 203.179688 92.023438 202.480469 91.726562 202.410156 91.691406 L 201.734375 91.371094 C 201.273438 91.136719 200.820312 90.890625 200.375 90.632812 C 200.117188 90.472656 199.855469 90.316406 199.585938 90.132812 L 199.144531 89.8125 C 199.457031 90.042969 199.300781 89.941406 199.089844 89.753906 C 198.007812 88.753906 196.996094 87.6875 196.0625 86.554688 C 194.023438 84.167969 192.171875 81.613281 189.816406 79.472656 C 188.753906 78.414062 187.542969 77.554688 186.1875 76.898438 C 184.089844 75.976562 181.890625 75.433594 179.597656 75.273438 C 170.492188 74.660156 162.261719 79.117188 154.742188 83.601562 C 153.027344 84.617188 151.300781 85.628906 149.527344 86.554688 L 148.898438 86.878906 C 149.589844 86.515625 149.035156 86.804688 148.898438 86.878906 C 148.472656 87.082031 148.078125 87.285156 147.625 87.46875 C 146.667969 87.898438 145.707031 88.257812 144.722656 88.621094 C 143.910156 88.90625 144.722656 88.621094 144.84375 88.625 C 144.632812 88.707031 144.417969 88.769531 144.195312 88.8125 C 143.699219 88.949219 143.210938 89.078125 142.707031 89.183594 L 142.050781 89.316406 C 141.4375 89.457031 142.859375 89.226562 142.191406 89.320312 C 141.6875 89.371094 141.195312 89.433594 140.695312 89.46875 L 140.023438 89.496094 C 140.886719 89.457031 140.136719 89.5 139.90625 89.496094 C 139.453125 89.480469 139.003906 89.445312 138.554688 89.386719 C 138.464844 89.382812 137.75 89.273438 138.175781 89.375 C 138.601562 89.472656 137.964844 89.367188 137.878906 89.300781 C 137.414062 89.203125 136.945312 89.078125 136.488281 88.9375 C 136.03125 88.796875 135.753906 88.695312 135.394531 88.566406 L 135.117188 88.453125 L 134.84375 88.335938 C 134.050781 87.96875 133.253906 87.566406 132.535156 87.140625 C 131.09375 86.304688 129.707031 85.382812 128.347656 84.441406 C 125.691406 82.433594 122.890625 80.644531 119.953125 79.0625 C 116.335938 77.222656 112.492188 76.347656 108.425781 76.441406 C 104.636719 76.609375 101.003906 77.449219 97.535156 78.957031 C 94.214844 80.382812 91.003906 82.015625 87.898438 83.851562 C 86.398438 84.699219 84.910156 85.546875 83.394531 86.351562 L 82.347656 86.921875 L 81.816406 87.191406 C 80.933594 87.652344 82.390625 86.921875 81.816406 87.191406 C 81.058594 87.558594 80.289062 87.941406 79.515625 88.253906 C 78.742188 88.566406 77.96875 88.894531 77.175781 89.183594 L 76.617188 89.375 C 76.40625 89.445312 75.871094 89.464844 76.46875 89.425781 C 77.066406 89.386719 76.519531 89.425781 76.316406 89.460938 L 75.578125 89.652344 C 75.128906 89.769531 74.675781 89.875 74.222656 89.957031 L 73.609375 90.074219 C 73.007812 90.1875 74.417969 89.972656 73.835938 90.035156 C 72.90625 90.136719 71.992188 90.238281 71.0625 90.265625 L 70.445312 90.25 C 69.863281 90.273438 71.160156 90.269531 70.574219 90.253906 C 70.164062 90.242188 69.769531 90.230469 69.339844 90.21875 C 68.40625 90.191406 67.492188 90.03125 66.570312 89.902344 C 66.023438 89.820312 67.140625 90.027344 66.570312 89.902344 L 65.96875 89.78125 C 65.5625 89.691406 65.167969 89.589844 64.761719 89.484375 C 63.863281 89.242188 62.980469 88.953125 62.113281 88.613281 L 61.539062 88.390625 C 61.042969 88.203125 61.9375 88.570312 61.449219 88.390625 C 60.964844 88.210938 60.605469 88.015625 60.191406 87.804688 C 59.40625 87.421875 58.640625 87 57.898438 86.542969 C 56.464844 85.679688 55.152344 84.664062 53.957031 83.496094 C 52.5 82.089844 51.15625 80.597656 49.5625 79.320312 C 47.921875 77.996094 46.066406 77.097656 44 76.621094 C 41.648438 76.128906 39.273438 75.964844 36.875 76.125 C 34.476562 76.28125 32.144531 76.761719 29.882812 77.558594 C 26.152344 78.921875 22.695312 80.777344 19.511719 83.132812 C 17.90625 84.246094 16.335938 85.425781 14.742188 86.511719 C 13.601562 87.273438 12.203125 89.085938 14.011719 90.074219 C 14.984375 90.496094 15.996094 90.660156 17.050781 90.570312 C 18.109375 90.480469 19.078125 90.144531 19.957031 89.566406 Z M 19.988281 89.574219 " fill-opacity="1" fill-rule="nonzero"/></g></g></g></svg>